<mxfile host="app.diagrams.net" modified="2022-08-23T04:54:02.492Z" agent="5.0 (Macintosh; Intel Mac OS X 10_15_7) AppleWebKit/537.36 (KHTML, like Gecko) Chrome/104.0.0.0 Safari/537.36" etag="EUVt5R51jSNmBbStMJhA" version="20.2.6" type="github">
  <diagram id="YouYj2U4Dx01pBtQAziN" name="第 1 页">
    <mxGraphModel dx="1281" dy="606" grid="1" gridSize="10" guides="1" tooltips="1" connect="1" arrows="1" fold="1" page="1" pageScale="1" pageWidth="827" pageHeight="1169" math="0" shadow="0">
      <root>
        <mxCell id="0" />
        <mxCell id="1" parent="0" />
        <mxCell id="drdi0xbM16MiaTAZyaK3-29" style="edgeStyle=none;curved=1;orthogonalLoop=1;jettySize=auto;html=1;exitX=1;exitY=0;exitDx=0;exitDy=0;entryX=0.5;entryY=0;entryDx=0;entryDy=0;" edge="1" parent="1">
          <mxGeometry relative="1" as="geometry">
            <mxPoint x="200.00427124746213" y="311.71572875253787" as="sourcePoint" />
            <mxPoint x="651.72" y="300" as="targetPoint" />
            <Array as="points">
              <mxPoint x="371.72" y="-140" />
            </Array>
          </mxGeometry>
        </mxCell>
        <mxCell id="drdi0xbM16MiaTAZyaK3-30" value="close" style="edgeLabel;html=1;align=center;verticalAlign=middle;resizable=0;points=[];" vertex="1" connectable="0" parent="drdi0xbM16MiaTAZyaK3-29">
          <mxGeometry x="0.1942" y="-77" relative="1" as="geometry">
            <mxPoint x="31" y="80" as="offset" />
          </mxGeometry>
        </mxCell>
        <mxCell id="drdi0xbM16MiaTAZyaK3-33" style="edgeStyle=none;curved=1;orthogonalLoop=1;jettySize=auto;html=1;exitX=1;exitY=1;exitDx=0;exitDy=0;entryX=-0.025;entryY=0.588;entryDx=0;entryDy=0;entryPerimeter=0;" edge="1" parent="1" source="drdi0xbM16MiaTAZyaK3-1" target="drdi0xbM16MiaTAZyaK3-4">
          <mxGeometry relative="1" as="geometry">
            <Array as="points">
              <mxPoint x="340" y="330" />
            </Array>
          </mxGeometry>
        </mxCell>
        <mxCell id="drdi0xbM16MiaTAZyaK3-34" value="solve" style="edgeLabel;html=1;align=center;verticalAlign=middle;resizable=0;points=[];" vertex="1" connectable="0" parent="drdi0xbM16MiaTAZyaK3-33">
          <mxGeometry x="0.1745" y="-18" relative="1" as="geometry">
            <mxPoint as="offset" />
          </mxGeometry>
        </mxCell>
        <mxCell id="drdi0xbM16MiaTAZyaK3-1" value="Open" style="ellipse;whiteSpace=wrap;html=1;aspect=fixed;" vertex="1" parent="1">
          <mxGeometry x="120" y="280" width="80" height="80" as="geometry" />
        </mxCell>
        <mxCell id="drdi0xbM16MiaTAZyaK3-45" style="edgeStyle=none;orthogonalLoop=1;jettySize=auto;html=1;exitX=0.5;exitY=1;exitDx=0;exitDy=0;entryX=0.5;entryY=1;entryDx=0;entryDy=0;curved=1;" edge="1" parent="1" source="drdi0xbM16MiaTAZyaK3-2" target="drdi0xbM16MiaTAZyaK3-2">
          <mxGeometry relative="1" as="geometry">
            <mxPoint x="270" y="500" as="targetPoint" />
            <Array as="points">
              <mxPoint x="340" y="600" />
              <mxPoint x="250" y="600" />
            </Array>
          </mxGeometry>
        </mxCell>
        <mxCell id="drdi0xbM16MiaTAZyaK3-46" value="reply" style="edgeLabel;html=1;align=center;verticalAlign=middle;resizable=0;points=[];" vertex="1" connectable="0" parent="drdi0xbM16MiaTAZyaK3-45">
          <mxGeometry x="-0.0933" y="-11" relative="1" as="geometry">
            <mxPoint y="-9" as="offset" />
          </mxGeometry>
        </mxCell>
        <mxCell id="drdi0xbM16MiaTAZyaK3-2" value="Pending" style="ellipse;whiteSpace=wrap;html=1;aspect=fixed;" vertex="1" parent="1">
          <mxGeometry x="240" y="410" width="80" height="80" as="geometry" />
        </mxCell>
        <mxCell id="drdi0xbM16MiaTAZyaK3-3" value="Closed" style="ellipse;whiteSpace=wrap;html=1;aspect=fixed;" vertex="1" parent="1">
          <mxGeometry x="600" y="280" width="80" height="80" as="geometry" />
        </mxCell>
        <mxCell id="drdi0xbM16MiaTAZyaK3-31" style="edgeStyle=none;curved=1;orthogonalLoop=1;jettySize=auto;html=1;exitX=0;exitY=1;exitDx=0;exitDy=0;entryX=1;entryY=1;entryDx=0;entryDy=0;" edge="1" parent="1" source="drdi0xbM16MiaTAZyaK3-4" target="drdi0xbM16MiaTAZyaK3-1">
          <mxGeometry relative="1" as="geometry" />
        </mxCell>
        <mxCell id="drdi0xbM16MiaTAZyaK3-32" value="reopen" style="edgeLabel;html=1;align=center;verticalAlign=middle;resizable=0;points=[];" vertex="1" connectable="0" parent="drdi0xbM16MiaTAZyaK3-31">
          <mxGeometry x="-0.145" relative="1" as="geometry">
            <mxPoint as="offset" />
          </mxGeometry>
        </mxCell>
        <mxCell id="drdi0xbM16MiaTAZyaK3-4" value="Solved" style="ellipse;whiteSpace=wrap;html=1;aspect=fixed;" vertex="1" parent="1">
          <mxGeometry x="480" y="400" width="80" height="80" as="geometry" />
        </mxCell>
        <mxCell id="drdi0xbM16MiaTAZyaK3-19" style="edgeStyle=none;curved=1;orthogonalLoop=1;jettySize=auto;html=1;exitX=1;exitY=1;exitDx=0;exitDy=0;entryX=0;entryY=0.5;entryDx=0;entryDy=0;" edge="1" parent="1" source="drdi0xbM16MiaTAZyaK3-5" target="drdi0xbM16MiaTAZyaK3-3">
          <mxGeometry relative="1" as="geometry">
            <Array as="points">
              <mxPoint x="500" y="330" />
            </Array>
          </mxGeometry>
        </mxCell>
        <mxCell id="drdi0xbM16MiaTAZyaK3-21" value="close" style="edgeLabel;html=1;align=center;verticalAlign=middle;resizable=0;points=[];" vertex="1" connectable="0" parent="drdi0xbM16MiaTAZyaK3-19">
          <mxGeometry x="0.081" y="18" relative="1" as="geometry">
            <mxPoint x="1" y="-1" as="offset" />
          </mxGeometry>
        </mxCell>
        <mxCell id="drdi0xbM16MiaTAZyaK3-23" style="edgeStyle=none;curved=1;orthogonalLoop=1;jettySize=auto;html=1;exitX=0.5;exitY=1;exitDx=0;exitDy=0;entryX=0;entryY=0.6;entryDx=0;entryDy=0;entryPerimeter=0;" edge="1" parent="1" source="drdi0xbM16MiaTAZyaK3-5" target="drdi0xbM16MiaTAZyaK3-4">
          <mxGeometry relative="1" as="geometry">
            <Array as="points">
              <mxPoint x="410" y="370" />
            </Array>
          </mxGeometry>
        </mxCell>
        <mxCell id="drdi0xbM16MiaTAZyaK3-25" value="solve" style="edgeLabel;html=1;align=center;verticalAlign=middle;resizable=0;points=[];" vertex="1" connectable="0" parent="drdi0xbM16MiaTAZyaK3-23">
          <mxGeometry x="-0.1329" y="11" relative="1" as="geometry">
            <mxPoint as="offset" />
          </mxGeometry>
        </mxCell>
        <mxCell id="drdi0xbM16MiaTAZyaK3-36" style="edgeStyle=none;curved=1;orthogonalLoop=1;jettySize=auto;html=1;exitX=1;exitY=1;exitDx=0;exitDy=0;entryX=0.5;entryY=0;entryDx=0;entryDy=0;" edge="1" parent="1" source="drdi0xbM16MiaTAZyaK3-5" target="drdi0xbM16MiaTAZyaK3-35">
          <mxGeometry relative="1" as="geometry">
            <Array as="points">
              <mxPoint x="530" y="360" />
            </Array>
          </mxGeometry>
        </mxCell>
        <mxCell id="drdi0xbM16MiaTAZyaK3-39" value="remark" style="edgeLabel;html=1;align=center;verticalAlign=middle;resizable=0;points=[];" vertex="1" connectable="0" parent="drdi0xbM16MiaTAZyaK3-36">
          <mxGeometry x="0.1101" y="-3" relative="1" as="geometry">
            <mxPoint x="27" y="-7" as="offset" />
          </mxGeometry>
        </mxCell>
        <mxCell id="drdi0xbM16MiaTAZyaK3-53" style="edgeStyle=none;curved=1;orthogonalLoop=1;jettySize=auto;html=1;exitX=0.5;exitY=0;exitDx=0;exitDy=0;entryX=0.6;entryY=-0.006;entryDx=0;entryDy=0;entryPerimeter=0;" edge="1" parent="1" source="drdi0xbM16MiaTAZyaK3-5" target="drdi0xbM16MiaTAZyaK3-5">
          <mxGeometry relative="1" as="geometry">
            <mxPoint x="440" y="180" as="targetPoint" />
            <Array as="points">
              <mxPoint x="360" y="190" />
              <mxPoint x="370" y="140" />
              <mxPoint x="400" y="110" />
              <mxPoint x="390" y="110" />
              <mxPoint x="408" y="120" />
              <mxPoint x="430" y="150" />
              <mxPoint x="430" y="180" />
            </Array>
          </mxGeometry>
        </mxCell>
        <mxCell id="drdi0xbM16MiaTAZyaK3-54" value="remark" style="edgeLabel;html=1;align=center;verticalAlign=middle;resizable=0;points=[];" vertex="1" connectable="0" parent="drdi0xbM16MiaTAZyaK3-53">
          <mxGeometry x="0.0437" y="1" relative="1" as="geometry">
            <mxPoint x="2" y="-1" as="offset" />
          </mxGeometry>
        </mxCell>
        <mxCell id="drdi0xbM16MiaTAZyaK3-5" value="In process" style="ellipse;whiteSpace=wrap;html=1;aspect=fixed;" vertex="1" parent="1">
          <mxGeometry x="360" y="200" width="80" height="80" as="geometry" />
        </mxCell>
        <mxCell id="drdi0xbM16MiaTAZyaK3-7" style="edgeStyle=orthogonalEdgeStyle;rounded=0;orthogonalLoop=1;jettySize=auto;html=1;exitX=0.5;exitY=1;exitDx=0;exitDy=0;entryX=0.5;entryY=0;entryDx=0;entryDy=0;" edge="1" parent="1" source="drdi0xbM16MiaTAZyaK3-6" target="drdi0xbM16MiaTAZyaK3-1">
          <mxGeometry relative="1" as="geometry" />
        </mxCell>
        <mxCell id="drdi0xbM16MiaTAZyaK3-47" value="creare" style="edgeLabel;html=1;align=center;verticalAlign=middle;resizable=0;points=[];" vertex="1" connectable="0" parent="drdi0xbM16MiaTAZyaK3-7">
          <mxGeometry x="0.0727" y="1" relative="1" as="geometry">
            <mxPoint as="offset" />
          </mxGeometry>
        </mxCell>
        <mxCell id="drdi0xbM16MiaTAZyaK3-6" value="init" style="rounded=0;whiteSpace=wrap;html=1;" vertex="1" parent="1">
          <mxGeometry x="100" y="110" width="120" height="60" as="geometry" />
        </mxCell>
        <mxCell id="drdi0xbM16MiaTAZyaK3-10" value="" style="endArrow=classic;html=1;rounded=0;entryX=0;entryY=0.5;entryDx=0;entryDy=0;exitX=1;exitY=0.5;exitDx=0;exitDy=0;" edge="1" parent="1" source="drdi0xbM16MiaTAZyaK3-1" target="drdi0xbM16MiaTAZyaK3-5">
          <mxGeometry width="50" height="50" relative="1" as="geometry">
            <mxPoint x="390" y="390" as="sourcePoint" />
            <mxPoint x="440" y="340" as="targetPoint" />
          </mxGeometry>
        </mxCell>
        <mxCell id="drdi0xbM16MiaTAZyaK3-11" value="take" style="edgeLabel;html=1;align=center;verticalAlign=middle;resizable=0;points=[];" vertex="1" connectable="0" parent="drdi0xbM16MiaTAZyaK3-10">
          <mxGeometry x="0.005" y="1" relative="1" as="geometry">
            <mxPoint y="1" as="offset" />
          </mxGeometry>
        </mxCell>
        <mxCell id="drdi0xbM16MiaTAZyaK3-37" style="edgeStyle=none;curved=1;orthogonalLoop=1;jettySize=auto;html=1;exitX=0.5;exitY=1;exitDx=0;exitDy=0;entryX=1;entryY=1;entryDx=0;entryDy=0;" edge="1" parent="1" source="drdi0xbM16MiaTAZyaK3-35" target="drdi0xbM16MiaTAZyaK3-2">
          <mxGeometry relative="1" as="geometry">
            <Array as="points">
              <mxPoint x="490" y="610" />
            </Array>
          </mxGeometry>
        </mxCell>
        <mxCell id="drdi0xbM16MiaTAZyaK3-44" value="yes&amp;nbsp; &amp;nbsp;reply" style="edgeLabel;html=1;align=center;verticalAlign=middle;resizable=0;points=[];" vertex="1" connectable="0" parent="drdi0xbM16MiaTAZyaK3-37">
          <mxGeometry x="-0.4953" y="-17" relative="1" as="geometry">
            <mxPoint x="-1" y="6" as="offset" />
          </mxGeometry>
        </mxCell>
        <mxCell id="drdi0xbM16MiaTAZyaK3-48" style="edgeStyle=none;curved=1;orthogonalLoop=1;jettySize=auto;html=1;exitX=0;exitY=0.5;exitDx=0;exitDy=0;entryX=0.713;entryY=0.95;entryDx=0;entryDy=0;entryPerimeter=0;" edge="1" parent="1" source="drdi0xbM16MiaTAZyaK3-35" target="drdi0xbM16MiaTAZyaK3-5">
          <mxGeometry relative="1" as="geometry" />
        </mxCell>
        <mxCell id="drdi0xbM16MiaTAZyaK3-49" value="no remark" style="edgeLabel;html=1;align=center;verticalAlign=middle;resizable=0;points=[];" vertex="1" connectable="0" parent="drdi0xbM16MiaTAZyaK3-48">
          <mxGeometry x="-0.5702" y="-1" relative="1" as="geometry">
            <mxPoint x="13" y="-4" as="offset" />
          </mxGeometry>
        </mxCell>
        <mxCell id="drdi0xbM16MiaTAZyaK3-35" value="isOperator" style="rhombus;whiteSpace=wrap;html=1;" vertex="1" parent="1">
          <mxGeometry x="620" y="400" width="80" height="80" as="geometry" />
        </mxCell>
      </root>
    </mxGraphModel>
  </diagram>
</mxfile>
